<?xml version="1.0" encoding="UTF-8" standalone="no"?>
<!-- Generator: Adobe Illustrator 19.0.0, SVG Export Plug-In . SVG Version: 6.00 Build 0)  -->

<svg
   version="1.1"
   id="Layer_1"
   x="0px"
   y="0px"
   viewBox="0 0 448.422 511.99899"
   xml:space="preserve"
   sodipodi:docname="cube.svg"
   width="448.422"
   height="511.99899"
   inkscape:version="1.1.1 (3bf5ae0d25, 2021-09-20)"
   xmlns:inkscape="http://www.inkscape.org/namespaces/inkscape"
   xmlns:sodipodi="http://sodipodi.sourceforge.net/DTD/sodipodi-0.dtd"
   xmlns="http://www.w3.org/2000/svg"
   xmlns:svg="http://www.w3.org/2000/svg"><defs
   id="defs2172" /><sodipodi:namedview
   id="namedview2170"
   pagecolor="#000000"
   bordercolor="#666666"
   borderopacity="1.0"
   inkscape:pageshadow="2"
   inkscape:pageopacity="0"
   inkscape:pagecheckerboard="0"
   showgrid="false"
   inkscape:zoom="1.4199219"
   inkscape:cx="177.82669"
   inkscape:cy="248.25309"
   inkscape:window-width="1914"
   inkscape:window-height="1055"
   inkscape:window-x="0"
   inkscape:window-y="0"
   inkscape:window-maximized="1"
   inkscape:current-layer="Layer_1" />
<g
   id="g2125"
   transform="translate(-31.789)">
	<g
   id="g2123">
		<path
   d="m 87.501,180.505 -8.002,-4.376 c -4.943,-2.704 -11.141,-0.887 -13.842,4.054 -2.703,4.942 -0.887,11.14 4.054,13.842 l 8.002,4.376 c 1.553,0.85 3.231,1.253 4.885,1.253 3.607,0 7.105,-1.918 8.957,-5.308 2.704,-4.94 0.888,-11.138 -4.054,-13.841 z"
   id="path2121"
   style="fill:#ffffff" />
	</g>
</g>
<g
   id="g2131"
   transform="translate(-31.789)">
	<g
   id="g2129">
		<path
   d="M 228.336,257.532 116.065,196.128 c -4.941,-2.703 -11.141,-0.888 -13.842,4.054 -2.703,4.942 -0.887,11.14 4.054,13.842 l 112.271,61.404 c 1.553,0.85 3.231,1.253 4.885,1.253 3.607,0 7.105,-1.918 8.957,-5.308 2.703,-4.941 0.888,-11.138 -4.054,-13.841 z"
   id="path2127"
   style="fill:#ffffff" />
	</g>
</g>
<g
   id="g2137"
   transform="translate(-31.789)">
	<g
   id="g2135">
		<path
   d="m 475.213,118.136 c -0.069,-0.041 -0.143,-0.068 -0.212,-0.108 -0.037,-0.024 -0.064,-0.051 -0.106,-0.073 L 260.786,1.244 c -3.045,-1.659 -6.725,-1.659 -9.767,0.002 L 37.103,117.99 c -0.08,0.044 -0.145,0.085 -0.208,0.124 -0.035,0.02 -0.072,0.034 -0.108,0.055 -3.099,1.837 -4.998,5.172 -4.998,8.773 v 257.645 c 0,3.727 2.032,7.157 5.301,8.946 l 214.071,117.213 c 1.528,0.836 3.213,1.253 4.899,1.253 1.67,0 3.331,-0.427 4.841,-1.244 0.02,-0.008 0.039,10e-4 0.059,-0.01 L 474.913,393.531 c 3.267,-1.79 5.298,-5.219 5.298,-8.945 V 126.911 c 10e-4,-3.603 -1.899,-6.939 -4.998,-8.775 z M 245.861,484.589 52.188,378.543 V 144.145 L 245.861,250.069 Z M 256.058,232.396 134.017,165.649 63.262,126.951 255.907,21.817 448.737,126.929 Z M 459.813,378.545 266.259,484.585 V 250.067 L 459.813,144.121 Z"
   id="path2133"
   style="fill:#ffffff" />
	</g>
</g>
<g
   id="g2139"
   transform="translate(-31.789)">
</g>
<g
   id="g2141"
   transform="translate(-31.789)">
</g>
<g
   id="g2143"
   transform="translate(-31.789)">
</g>
<g
   id="g2145"
   transform="translate(-31.789)">
</g>
<g
   id="g2147"
   transform="translate(-31.789)">
</g>
<g
   id="g2149"
   transform="translate(-31.789)">
</g>
<g
   id="g2151"
   transform="translate(-31.789)">
</g>
<g
   id="g2153"
   transform="translate(-31.789)">
</g>
<g
   id="g2155"
   transform="translate(-31.789)">
</g>
<g
   id="g2157"
   transform="translate(-31.789)">
</g>
<g
   id="g2159"
   transform="translate(-31.789)">
</g>
<g
   id="g2161"
   transform="translate(-31.789)">
</g>
<g
   id="g2163"
   transform="translate(-31.789)">
</g>
<g
   id="g2165"
   transform="translate(-31.789)">
</g>
<g
   id="g2167"
   transform="translate(-31.789)">
</g>
</svg>
