<?xml version="1.0" encoding="UTF-8" standalone="no"?>
<!-- Created with Inkscape (http://www.inkscape.org/) -->

<svg
   width="131.74333mm"
   height="134.67751mm"
   viewBox="0 0 131.74333 134.67751"
   version="1.1"
   id="svg5"
   inkscape:version="1.1.1 (3bf5ae0d25, 2021-09-20)"
   sodipodi:docname="hammer.svg"
   xmlns:inkscape="http://www.inkscape.org/namespaces/inkscape"
   xmlns:sodipodi="http://sodipodi.sourceforge.net/DTD/sodipodi-0.dtd"
   xmlns="http://www.w3.org/2000/svg"
   xmlns:svg="http://www.w3.org/2000/svg">
  <sodipodi:namedview
     id="namedview7"
     pagecolor="#000000"
     bordercolor="#666666"
     borderopacity="1.0"
     inkscape:pageshadow="2"
     inkscape:pageopacity="0"
     inkscape:pagecheckerboard="0"
     inkscape:document-units="mm"
     showgrid="false"
     inkscape:zoom="0.64765011"
     inkscape:cx="281.01593"
     inkscape:cy="264.80347"
     inkscape:window-width="1914"
     inkscape:window-height="1055"
     inkscape:window-x="0"
     inkscape:window-y="0"
     inkscape:window-maximized="1"
     inkscape:current-layer="layer1" />
  <defs
     id="defs2" />
  <g
     inkscape:label="Layer 1"
     inkscape:groupmode="layer"
     id="layer1"
     transform="translate(-34.626267,-86.472126)">
    <path
       d="m 123.10653,100.7315 23.21917,22.07944 c 1.67665,1.5922 1.83288,4.19193 0.43235,5.96825 l -2.17803,4.64183 1.84515,1.75475 4.80967,-2.56237 c 3.03782,-1.57485 5.04116,-0.33793 5.96823,0.54168 l 7.78375,7.40465 c 0.86112,0.81664 1.35136,1.92063 1.38121,3.10939 l 1.3e-4,0.004 c 0.0298,1.18669 -0.40441,2.31388 -1.22351,3.17038 l -18.38138,19.32843 c -0.81664,0.86112 -1.92271,1.35142 -3.10939,1.38122 -1.18669,0.0298 -2.31389,-0.40441 -3.1748,-1.22339 l -7.81787,-7.43481 c -0.91344,-0.8664 -2.23121,-2.78786 -0.79806,-5.92129 l 2.30701,-4.91189 -1.84515,-1.75475 -4.52665,2.40829 c -0.77663,0.6798 -1.76105,1.0649 -2.80763,1.09118 -1.18668,0.0298 -2.31388,-0.4044 -3.1748,-1.22339 l -9.25998,-8.80855 c -0.88841,-0.84488 -0.92374,-2.25161 -0.0789,-3.1421 0.84721,-0.88846 2.25368,-0.92379 3.14209,-0.0789 l 9.25998,8.80855 c 0.1647,-0.17535 0.35649,-0.32035 0.56736,-0.43221 l 6.20762,-3.29997 c 0.84473,-0.44804 1.88222,-0.30733 2.57474,0.35329 l 4.16627,3.96214 c 0.69245,0.65855 0.88076,1.69219 0.48001,2.55381 l -2.9782,6.34523 c -0.25948,0.56232 -0.22499,0.78398 -0.17252,0.8293 l 7.81786,7.43481 18.38139,-19.32844 -7.86777,-7.47133 c -0.002,1.2e-4 -0.22542,-0.0321 -0.75221,0.24116 l -6.20757,3.30232 c -0.84264,0.44798 -1.88221,0.30732 -2.57468,-0.35122 l -4.16419,-3.96219 c -0.69493,-0.66288 -0.88519,-1.69208 -0.48216,-2.55609 l 2.98428,-6.3631 c 0.10349,-0.21601 0.23634,-0.41504 0.40318,-0.58834 l -23.36071,-22.22702 c -0.11669,-0.13283 -11.67574,-13.185969 -23.788661,-12.881764 -4.862092,0.122107 -8.304182,0.208554 -13.101892,2.012348 18.659643,5.208228 26.204923,15.951866 26.548943,16.452386 0.42244,0.61424 0.50657,1.40141 0.22606,2.09115 l -5.40094,13.27922 c -0.2828,0.69189 -0.26189,1.07831 -0.26783,1.11181 l 5.69394,5.38038 c 0.43255,0.40501 0.77949,0.93881 0.69501,1.55901 0.0148,0.59113 -0.20431,1.16129 -0.61157,1.5874 l -69.41652,72.98849 c -0.401911,0.37934 -1.43558,1.62581 -1.405607,2.81926 0.0308,1.22653 1.104943,2.38047 1.643212,2.8339 l 2.371415,2.25954 c 0.379319,0.40193 1.62581,1.43558 2.819266,1.40561 1.168975,-0.0294 2.41443,-1.16364 2.833896,-1.64321 L 112.63047,147.8785 c 0.84717,-0.89081 2.25363,-0.92613 3.1421,-0.0789 0.89075,0.84482 0.92608,2.25154 0.0789,3.14209 l -63.803491,67.08599 c -0.263441,0.31123 -2.665522,3.0354 -6.029743,3.11989 -3.411097,0.0857 -5.915977,-2.52856 -6.087609,-2.72228 l -2.136944,-2.04317 c -0.315311,-0.24979 -3.077459,-2.56649 -3.165356,-6.06638 -0.08567,-3.4111 2.528553,-5.91598 2.722278,-6.08761 l 67.787085,-71.27964 -4.07912,-3.85332 c -1.487435,-1.41456 -1.778299,-3.60649 -0.7892,-6.0148 l 4.91114,-12.0727 C 102.71992,108.12315 93.777138,99.099999 75.773218,95.836639 74.841826,95.666687 74.120474,94.926536 73.972388,93.989583 73.837976,93.067924 74.290213,92.129448 75.126456,91.685796 84.366195,86.770975 89.246,86.648424 96.001528,86.478765 110.21647,86.121767 122.72619,100.27853 123.10653,100.7315 Z"
       id="path2"
       style="stroke-width:0.260491;fill:#ffffff" />
  </g>
</svg>
