<?xml version="1.0" encoding="UTF-8" standalone="no"?>
<!-- Generator: Adobe Illustrator 19.1.0, SVG Export Plug-In . SVG Version: 6.00 Build 0)  -->

<svg
   version="1.1"
   id="Capa_1"
   x="0px"
   y="0px"
   viewBox="0 0 484.3 484.3"
   style="enable-background:new 0 0 484.3 484.3;"
   xml:space="preserve"
   sodipodi:docname="head.svg"
   inkscape:version="1.1.1 (3bf5ae0d25, 2021-09-20)"
   xmlns:inkscape="http://www.inkscape.org/namespaces/inkscape"
   xmlns:sodipodi="http://sodipodi.sourceforge.net/DTD/sodipodi-0.dtd"
   xmlns="http://www.w3.org/2000/svg"
   xmlns:svg="http://www.w3.org/2000/svg"><defs
   id="defs136" /><sodipodi:namedview
   id="namedview134"
   pagecolor="#000000"
   bordercolor="#666666"
   borderopacity="1.0"
   inkscape:pageshadow="2"
   inkscape:pageopacity="0"
   inkscape:pagecheckerboard="0"
   showgrid="false"
   inkscape:zoom="1.773694"
   inkscape:cx="242.15"
   inkscape:cy="242.15"
   inkscape:window-width="1914"
   inkscape:window-height="1055"
   inkscape:window-x="0"
   inkscape:window-y="0"
   inkscape:window-maximized="1"
   inkscape:current-layer="g99" />
<g
   id="g101">
	<g
   id="g99">
		<path
   d="M262.198,0c-28.1,0-55.1,6.1-80.3,18c-32,14.9-59.1,38.4-78.4,68c-19.9,30.5-30.4,65.8-30.4,102.3V214l-34,65    c-6.5,12.5-6.8,25.3-0.8,35.3s17.5,15.7,31.6,15.7h3.2v51.1c0,27.7,22.5,50.2,50.2,50.2c0.7,0,1.3,0,2-0.1l34.9-5.2v35.1    c0,0.5,0,1.1,0.1,1.6c1,12.4,11,21.6,23.7,21.6l0,0c1.5,0,3-0.1,4.6-0.4l181.5-32.2c13.2-2.3,23.6-14.7,23.6-28.1v-101    c36.1-35.3,56.6-84,56.6-134.5C450.298,84.4,365.898,0,262.198,0z M370.998,306.8c-2.8,2.6-4.4,6.2-4.4,9.9v106.7    c-0.1,0.5-0.8,1.4-1.3,1.6l-178.2,31.5l-0.1-46.5c0-3.9-1.7-7.7-4.7-10.2c-2.5-2.1-5.6-3.3-8.8-3.3c-0.7,0-1.3,0-2,0.1l-49.3,7.3    c-12.4-0.5-22.3-10.7-22.3-23.2v-64.6c0-7.5-6-13.5-13.5-13.5h-16.5c-5.1,0-7.8-1.4-8.5-2.6s-0.8-4.3,1.6-8.8l35.6-67.9    c1-1.9,1.5-4.1,1.5-6.3v-29c0-62.4,36.6-119.6,93.2-145.9h0.1c21.5-10,44.7-15.1,68.8-15.1c88.8,0,161.1,72.3,161.1,161.1    C423.298,233.1,404.198,276.4,370.998,306.8z"
   id="path95"
   style="fill:#ffffff" />
		<path
   d="M147.898,202.6c-9.8,0-17.8,8-17.8,17.8s8,17.8,17.8,17.8s17.8-8,17.8-17.8S157.698,202.6,147.898,202.6z"
   id="path97"
   style="fill:#ffffff" />
	</g>
</g>
<g
   id="g103">
</g>
<g
   id="g105">
</g>
<g
   id="g107">
</g>
<g
   id="g109">
</g>
<g
   id="g111">
</g>
<g
   id="g113">
</g>
<g
   id="g115">
</g>
<g
   id="g117">
</g>
<g
   id="g119">
</g>
<g
   id="g121">
</g>
<g
   id="g123">
</g>
<g
   id="g125">
</g>
<g
   id="g127">
</g>
<g
   id="g129">
</g>
<g
   id="g131">
</g>
</svg>
