<?xml version="1.0" encoding="UTF-8" standalone="no"?>
<!-- Generator: Adobe Illustrator 19.0.0, SVG Export Plug-In . SVG Version: 6.00 Build 0)  -->

<svg
   version="1.1"
   id="Layer_1"
   x="0px"
   y="0px"
   viewBox="0 0 129.986 512.00002"
   xml:space="preserve"
   sodipodi:docname="nail.svg"
   width="129.98599"
   height="512"
   inkscape:version="1.1.1 (3bf5ae0d25, 2021-09-20)"
   xmlns:inkscape="http://www.inkscape.org/namespaces/inkscape"
   xmlns:sodipodi="http://sodipodi.sourceforge.net/DTD/sodipodi-0.dtd"
   xmlns="http://www.w3.org/2000/svg"
   xmlns:svg="http://www.w3.org/2000/svg"><defs
   id="defs1873" /><sodipodi:namedview
   id="namedview1871"
   pagecolor="#000000"
   bordercolor="#666666"
   borderopacity="1.0"
   inkscape:pageshadow="2"
   inkscape:pageopacity="0"
   inkscape:pagecheckerboard="0"
   showgrid="false"
   inkscape:zoom="1.4199192"
   inkscape:cx="-16.902371"
   inkscape:cy="248.25357"
   inkscape:window-width="858"
   inkscape:window-height="1055"
   inkscape:window-x="1056"
   inkscape:window-y="0"
   inkscape:window-maximized="1"
   inkscape:current-layer="g1836" />
<g
   id="g1838"
   transform="translate(-191.007)">
	<g
   id="g1836">
		<path
   d="M 310.793,0 H 201.206 c -5.633,0 -10.199,4.566 -10.199,10.199 v 19.715 c 0,16.778 13.65,30.427 30.427,30.427 h 0.811 v 375.913 c 0,1.176 0.203,2.343 0.601,3.449 l 23.556,65.547 c 1.455,4.049 5.295,6.75 9.598,6.75 4.303,0 8.143,-2.701 9.598,-6.75 l 23.556,-65.547 c 0.398,-1.107 0.601,-2.273 0.601,-3.449 V 60.342 h 0.811 c 16.778,0 30.427,-13.65 30.427,-30.427 V 10.199 C 320.992,4.566 316.426,0 310.793,0 Z M 255.999,471.644 242.642,434.478 V 60.342 h 26.713 v 374.135 h 10e-4 z m 44.593,-441.73 c 0,5.53 -4.499,10.029 -10.029,10.029 h -69.13 c -5.53,0 -10.029,-4.499 -10.029,-10.029 v -9.516 h 89.188 z"
   id="path1834"
   style="fill:#ffffff;stroke-width:1" />
	</g>
</g>
<g
   id="g1840"
   transform="translate(-191.007)">
</g>
<g
   id="g1842"
   transform="translate(-191.007)">
</g>
<g
   id="g1844"
   transform="translate(-191.007)">
</g>
<g
   id="g1846"
   transform="translate(-191.007)">
</g>
<g
   id="g1848"
   transform="translate(-191.007)">
</g>
<g
   id="g1850"
   transform="translate(-191.007)">
</g>
<g
   id="g1852"
   transform="translate(-191.007)">
</g>
<g
   id="g1854"
   transform="translate(-191.007)">
</g>
<g
   id="g1856"
   transform="translate(-191.007)">
</g>
<g
   id="g1858"
   transform="translate(-191.007)">
</g>
<g
   id="g1860"
   transform="translate(-191.007)">
</g>
<g
   id="g1862"
   transform="translate(-191.007)">
</g>
<g
   id="g1864"
   transform="translate(-191.007)">
</g>
<g
   id="g1866"
   transform="translate(-191.007)">
</g>
<g
   id="g1868"
   transform="translate(-191.007)">
</g>
</svg>
