<?xml version="1.0" encoding="UTF-8" standalone="no"?>
<!-- Generator: Adobe Illustrator 16.0.0, SVG Export Plug-In . SVG Version: 6.00 Build 0)  -->

<svg
   version="1.1"
   id="Capa_1"
   x="0px"
   y="0px"
   width="45.705433"
   height="39.833038"
   viewBox="0 0 45.705431 39.833037"
   xml:space="preserve"
   sodipodi:docname="pyramids.svg"
   inkscape:version="1.1.1 (3bf5ae0d25, 2021-09-20)"
   xmlns:inkscape="http://www.inkscape.org/namespaces/inkscape"
   xmlns:sodipodi="http://sodipodi.sourceforge.net/DTD/sodipodi-0.dtd"
   xmlns="http://www.w3.org/2000/svg"
   xmlns:svg="http://www.w3.org/2000/svg"><defs
   id="defs2586" /><sodipodi:namedview
   id="namedview2584"
   pagecolor="#000000"
   bordercolor="#666666"
   borderopacity="1.0"
   inkscape:pageshadow="2"
   inkscape:pageopacity="0"
   inkscape:pagecheckerboard="0"
   showgrid="false"
   inkscape:zoom="15.906355"
   inkscape:cx="16.628574"
   inkscape:cy="19.583367"
   inkscape:window-width="1914"
   inkscape:window-height="1055"
   inkscape:window-x="0"
   inkscape:window-y="0"
   inkscape:window-maximized="1"
   inkscape:current-layer="g2549" />
<g
   id="g2551"
   transform="translate(1.7561956e-4,-2.9359598)">
	<g
   id="g2549">
		<path
   d="m 14.057,6.845 c 0.026,-0.151 0.141,-0.27 0.29,-0.301 0.149,-0.031 0.302,0.033 0.386,0.16 l 4.589,7.038 1.184,-1.682 -5.881,-8.667 C 14.433,3.11 14.115,2.939 13.772,2.936 13.431,2.933 13.109,3.098 12.913,3.378 L 0.19,21.458 c -0.164,0.232 -0.225,0.521 -0.171,0.799 0.055,0.278 0.22,0.523 0.459,0.676 L 9,28.411 10.838,25.798 Z"
   id="path2545"
   style="fill:#ffffff" />
		<path
   d="M 45.467,33.439 28.688,8.7 c -0.244,-0.36 -0.65,-0.575 -1.085,-0.575 -0.427,0 -0.826,0.208 -1.072,0.556 L 9.565,32.778 c -0.217,0.309 -0.298,0.696 -0.226,1.065 0.072,0.37 0.292,0.696 0.608,0.899 l 12.142,7.806 c 0.225,0.146 0.485,0.221 0.748,0.221 0.146,0 0.293,-0.022 0.437,-0.069 l 21.488,-7.163 c 0.41,-0.137 0.732,-0.458 0.871,-0.868 0.138,-0.412 0.076,-0.871 -0.166,-1.23 z m -3.806,-0.122 c -0.075,0.219 -0.246,0.39 -0.464,0.466 l -16.938,5.873 c -0.164,0.056 -0.346,0.021 -0.479,-0.091 -0.133,-0.111 -0.197,-0.286 -0.167,-0.458 l 4.371,-25.729 c 0.034,-0.2 0.187,-0.358 0.385,-0.399 0.198,-0.041 0.401,0.043 0.512,0.213 L 41.58,32.667 c 0.126,0.192 0.155,0.432 0.081,0.65 z"
   id="path2547"
   style="fill:#ffffff" />
	</g>
</g>
<g
   id="g2553"
   transform="translate(1.7561956e-4,-2.9359598)">
</g>
<g
   id="g2555"
   transform="translate(1.7561956e-4,-2.9359598)">
</g>
<g
   id="g2557"
   transform="translate(1.7561956e-4,-2.9359598)">
</g>
<g
   id="g2559"
   transform="translate(1.7561956e-4,-2.9359598)">
</g>
<g
   id="g2561"
   transform="translate(1.7561956e-4,-2.9359598)">
</g>
<g
   id="g2563"
   transform="translate(1.7561956e-4,-2.9359598)">
</g>
<g
   id="g2565"
   transform="translate(1.7561956e-4,-2.9359598)">
</g>
<g
   id="g2567"
   transform="translate(1.7561956e-4,-2.9359598)">
</g>
<g
   id="g2569"
   transform="translate(1.7561956e-4,-2.9359598)">
</g>
<g
   id="g2571"
   transform="translate(1.7561956e-4,-2.9359598)">
</g>
<g
   id="g2573"
   transform="translate(1.7561956e-4,-2.9359598)">
</g>
<g
   id="g2575"
   transform="translate(1.7561956e-4,-2.9359598)">
</g>
<g
   id="g2577"
   transform="translate(1.7561956e-4,-2.9359598)">
</g>
<g
   id="g2579"
   transform="translate(1.7561956e-4,-2.9359598)">
</g>
<g
   id="g2581"
   transform="translate(1.7561956e-4,-2.9359598)">
</g>
</svg>
