<?xml version="1.0" encoding="UTF-8" standalone="no"?>
<!-- Generator: Adobe Illustrator 19.0.0, SVG Export Plug-In . SVG Version: 6.00 Build 0)  -->

<svg
   version="1.1"
   id="Layer_1"
   x="0px"
   y="0px"
   viewBox="0 0 136.31693 511.995"
   xml:space="preserve"
   sodipodi:docname="screw.svg"
   width="136.31693"
   height="511.995"
   inkscape:version="1.1.1 (3bf5ae0d25, 2021-09-20)"
   xmlns:inkscape="http://www.inkscape.org/namespaces/inkscape"
   xmlns:sodipodi="http://sodipodi.sourceforge.net/DTD/sodipodi-0.dtd"
   xmlns="http://www.w3.org/2000/svg"
   xmlns:svg="http://www.w3.org/2000/svg"><defs
   id="defs1507" /><sodipodi:namedview
   id="namedview1505"
   pagecolor="#000000"
   bordercolor="#666666"
   borderopacity="1.0"
   inkscape:pageshadow="2"
   inkscape:pageopacity="0"
   inkscape:pagecheckerboard="0"
   showgrid="false"
   inkscape:zoom="1.4199219"
   inkscape:cx="61.623109"
   inkscape:cy="250.36589"
   inkscape:window-width="1914"
   inkscape:window-height="1055"
   inkscape:window-x="0"
   inkscape:window-y="0"
   inkscape:window-maximized="1"
   inkscape:current-layer="g1470" />
<g
   transform="translate(-186.8417,0.999)"
   id="g1472">
	<g
   id="g1470">
		<path
   d="m 288.948,50.2 c 2.56,0 5.12,-0.853 6.827,-3.413 l 25.6,-34.133 c 1.707,-2.56 2.56,-5.973 0.853,-8.533 -1.707,-3.413 -4.267,-5.12 -7.68,-5.12 H 195.082 c -3.413,0 -6.827,2.56 -7.68,5.12 -0.853,2.56 -0.853,5.973 0.853,8.533 l 25.6,34.133 c 1.707,2.56 4.267,3.413 6.827,3.413 h 8.533 v 18.56 l -5.973,-1.493 c -5.12,-0.853 -9.387,1.707 -11.093,6.827 -0.853,4.267 1.707,8.533 6.827,10.24 l 10.24,2.56 v 16.853 l -5.973,-1.493 c -4.267,-1.707 -9.387,1.707 -10.24,5.973 -1.707,4.267 1.707,9.387 5.973,10.24 l 10.24,2.56 v 16.853 l -5.973,-1.493 c -4.267,-1.707 -9.387,1.707 -10.24,5.973 -1.707,4.267 1.707,9.387 5.973,10.24 l 10.24,2.56 v 16.853 l -5.973,-1.493 c -4.267,-1.707 -9.387,1.707 -10.24,5.973 -1.707,4.267 1.707,9.387 5.973,10.24 l 10.24,2.56 v 16.853 l -5.973,-1.493 c -4.267,-1.707 -9.387,1.707 -10.24,5.973 -1.707,4.267 1.707,9.387 5.973,10.24 l 10.24,2.56 v 16.853 l -5.973,-1.493 c -4.267,-1.707 -9.387,1.707 -10.24,5.973 -1.707,4.267 1.707,9.387 5.973,10.24 l 10.24,2.56 v 16.853 l -5.973,-1.493 c -4.267,-1.707 -9.387,1.707 -10.24,5.973 -1.707,4.267 1.707,9.387 5.973,10.24 l 10.24,2.56 v 16.853 l -5.973,-1.493 c -4.267,-1.707 -9.387,1.707 -10.24,5.973 -1.707,4.267 1.707,9.387 5.973,10.24 l 10.24,2.56 v 16.853 l -5.973,-1.493 c -4.267,-1.707 -9.387,1.707 -10.24,5.973 -1.707,4.267 1.707,9.387 5.973,10.24 l 10.24,2.56 v 16.853 l -5.973,-1.493 c -4.267,-1.707 -9.387,1.707 -10.24,5.973 -1.707,4.267 1.707,9.387 5.973,10.24 l 10.24,2.56 v 3.413 c 0,4.516 0.093,9.018 0.274,13.508 l -6.247,-1.562 c -4.267,-1.707 -9.387,1.707 -10.24,5.973 -1.707,4.267 1.707,9.387 5.973,10.24 l 11.706,2.926 c 2.431,25.914 7.904,51.394 16.454,76.434 0.853,3.413 4.267,5.973 7.68,5.973 3.413,0 6.827,-2.56 8.533,-5.973 6.736,-21.245 11.571,-42.807 14.341,-64.682 l 9.553,2.388 c 0,0 0.853,0 1.707,0 4.267,0 7.68,-2.56 8.533,-5.973 1.707,-4.267 -1.707,-9.387 -5.973,-10.24 l -12.103,-3.026 c 0.425,-5.526 0.71,-11.072 0.864,-16.637 l 6.972,1.743 c 0,0 0.853,0 1.707,0 4.267,0 7.68,-2.56 8.533,-5.973 1.707,-4.267 -1.707,-9.387 -5.973,-10.24 l -11.093,-2.773 v -16.85 l 6.827,1.707 c 0,0 0.853,0 1.707,0 4.267,0 7.68,-2.56 8.533,-5.973 1.707,-4.267 -1.707,-9.387 -5.973,-10.24 l -11.093,-2.773 v -16.853 l 6.827,1.707 c 0,0 0.853,0 1.707,0 4.267,0 7.68,-2.56 8.533,-5.973 1.707,-4.267 -1.707,-9.387 -5.973,-10.24 l -11.093,-2.773 v -16.853 l 6.827,1.707 c 0,0 0.853,0 1.707,0 4.267,0 7.68,-2.56 8.533,-5.973 1.707,-4.267 -1.707,-9.387 -5.973,-10.24 L 280.42,287.217 V 270.36 l 6.827,1.707 c 0,0 0.853,0 1.707,0 4.267,0 7.68,-2.56 8.533,-5.973 1.707,-4.267 -1.707,-9.387 -5.973,-10.24 l -11.093,-2.773 v -16.853 l 6.827,1.707 c 0,0 0.853,0 1.707,0 4.267,0 7.68,-2.56 8.533,-5.973 1.707,-4.267 -1.707,-9.387 -5.973,-10.24 l -11.093,-2.773 v -16.853 l 6.827,1.707 c 0,0 0.853,0 1.707,0 4.267,0 7.68,-2.56 8.533,-5.973 1.707,-4.267 -1.707,-9.387 -5.973,-10.24 l -11.093,-2.773 V 167.96 l 6.827,1.707 c 0,0 0.853,0 1.707,0 4.267,0 7.68,-2.56 8.533,-5.973 1.707,-4.267 -1.707,-9.387 -5.973,-10.24 l -11.093,-2.773 v -16.853 l 6.827,1.707 c 0,0 0.853,0 1.707,0 4.267,0 7.68,-2.56 8.533,-5.973 1.707,-4.267 -1.707,-9.387 -5.973,-10.24 l -11.093,-2.773 V 99.693 l 6.827,1.707 c 0,0 0.853,0 1.707,0 4.267,0 7.68,-2.56 8.533,-6.827 1.707,-4.267 -1.707,-9.387 -5.973,-10.24 L 280.426,81.56 V 50.2 Z m -76.8,-34.133 h 85.333 l -12.8,17.067 h -12.8 -34.133 -12.8 z m 42.667,455.68 c -3.121,-12.93 -5.302,-25.86 -6.681,-38.79 l 13.073,3.268 c -1.389,12.042 -3.482,23.884 -6.392,35.522 z m 7.874,-52.432 -15.948,-3.987 c -0.292,-5.656 -0.44,-11.311 -0.453,-16.967 l 17.025,4.256 c -0.077,5.608 -0.286,11.173 -0.624,16.698 z m 0.659,-33.968 -17.067,-4.267 v -16.853 l 17.067,4.267 z m 0,-34.134 -17.067,-4.267 v -16.853 l 17.067,4.267 z m 0,-34.133 -17.067,-4.267 V 295.96 l 17.067,4.267 z m 0,-34.133 -17.067,-4.267 v -16.853 l 17.067,4.267 z m 0,-34.134 -17.067,-4.267 v -16.853 l 17.067,4.267 z m 0,-34.133 -17.067,-4.267 V 193.56 l 17.067,4.267 z m 0,-34.133 -17.067,-4.267 v -16.853 l 17.067,4.267 z m 0,-34.134 -17.067,-4.267 v -16.853 l 17.067,4.267 z m 0,-34.133 -17.067,-4.267 V 91.16 l 17.067,4.267 z m 0,-34.987 -17.067,-4.267 V 50.2 h 17.067 z"
   id="path1468"
   style="fill:#ffffff" />
	</g>
</g>
<g
   id="g1474"
   transform="translate(-187.8417,-0.001)">
</g>
<g
   id="g1476"
   transform="translate(-187.8417,-0.001)">
</g>
<g
   id="g1478"
   transform="translate(-187.8417,-0.001)">
</g>
<g
   id="g1480"
   transform="translate(-187.8417,-0.001)">
</g>
<g
   id="g1482"
   transform="translate(-187.8417,-0.001)">
</g>
<g
   id="g1484"
   transform="translate(-187.8417,-0.001)">
</g>
<g
   id="g1486"
   transform="translate(-187.8417,-0.001)">
</g>
<g
   id="g1488"
   transform="translate(-187.8417,-0.001)">
</g>
<g
   id="g1490"
   transform="translate(-187.8417,-0.001)">
</g>
<g
   id="g1492"
   transform="translate(-187.8417,-0.001)">
</g>
<g
   id="g1494"
   transform="translate(-187.8417,-0.001)">
</g>
<g
   id="g1496"
   transform="translate(-187.8417,-0.001)">
</g>
<g
   id="g1498"
   transform="translate(-187.8417,-0.001)">
</g>
<g
   id="g1500"
   transform="translate(-187.8417,-0.001)">
</g>
<g
   id="g1502"
   transform="translate(-187.8417,-0.001)">
</g>
</svg>
